<svg width="150" height="140" viewBox="0 0 150 140" fill="none" xmlns="http://www.w3.org/2000/svg">
<g clip-path="url(#clip0_5_68)">
<path d="M0.00994478 99.8002C0.0205786 99.8553 0.0373475 99.9089 0.0599374 99.9602C0.069936 99.9902 0.0799345 100.03 0.089933 100.06L11.4983 119.817L11.5283 119.847C11.5483 119.877 11.5682 119.907 11.5982 119.947C11.6368 119.989 11.6805 120.026 11.7282 120.057C11.7582 120.077 11.7782 120.107 11.8082 120.127C11.8199 120.135 11.8341 120.139 11.8482 120.137C11.9614 120.201 12.0885 120.235 12.2182 120.237H57.3515L68.5199 139.574L68.5499 139.604C68.5699 139.634 68.5899 139.664 68.6199 139.704C68.6585 139.746 68.7021 139.783 68.7499 139.814C68.7799 139.834 68.7998 139.864 68.8298 139.884C68.8416 139.892 68.8557 139.896 68.8698 139.894C68.983 139.958 69.1101 139.992 69.2398 139.994H137.68C137.813 139.992 137.943 139.958 138.06 139.894L138.15 139.834C138.235 139.778 138.309 139.707 138.37 139.624C138.38 139.604 138.41 139.594 138.42 139.574L149.828 119.817C149.838 119.797 149.838 119.787 149.848 119.767C149.866 119.736 149.879 119.702 149.888 119.667C149.898 119.627 149.908 119.597 149.918 119.557C149.926 119.521 149.93 119.484 149.928 119.447C149.928 119.427 149.938 119.417 149.938 119.397C149.938 119.377 149.928 119.367 149.928 119.347C149.928 119.307 149.918 119.277 149.918 119.237C149.918 119.197 149.898 119.167 149.888 119.127C149.876 119.093 149.863 119.06 149.848 119.027C149.838 119.007 149.838 118.997 149.828 118.977L127.261 79.8932L138.42 60.556C138.43 60.536 138.43 60.526 138.44 60.506C138.457 60.4745 138.471 60.4409 138.48 60.406C138.49 60.366 138.5 60.336 138.51 60.296C138.518 60.26 138.521 60.223 138.52 60.1861C138.52 60.1661 138.53 60.1561 138.53 60.1361C138.53 60.1161 138.52 60.1061 138.52 60.0861C138.52 60.0461 138.51 60.0161 138.51 59.9761C138.51 59.9361 138.49 59.9061 138.48 59.8661C138.468 59.8321 138.455 59.7987 138.44 59.7661C138.43 59.7461 138.43 59.7361 138.42 59.7161L104.215 0.43482C104.195 0.404824 104.165 0.384827 104.145 0.354831C104.11 0.309457 104.074 0.26606 104.035 0.224851C103.994 0.191518 103.95 0.16143 103.905 0.134864C103.861 0.105629 103.814 0.0821061 103.765 0.064874C103.706 0.0457444 103.646 0.0323501 103.585 0.0248799C103.555 0.0248799 103.525 0.00488281 103.485 0.00488281H80.6681C80.6481 0.00488281 80.6381 0.0148813 80.6181 0.0148813C80.5781 0.0148813 80.5481 0.0248799 80.5081 0.0248799L80.3882 0.0548754C80.3582 0.064874 80.3182 0.0848711 80.2882 0.0948696C80.2582 0.104868 80.2582 0.104868 80.2382 0.114867C80.2268 0.127217 80.2132 0.137382 80.1982 0.144862C80.1658 0.165012 80.1357 0.188468 80.1082 0.214852C80.0791 0.238936 80.0523 0.265718 80.0282 0.29484C80.0082 0.324836 79.9782 0.354831 79.9582 0.384827C79.9459 0.396221 79.9357 0.409775 79.9282 0.424821L57.3615 39.5191H35.0448C35.0248 39.5191 35.0148 39.5291 34.9948 39.5291C34.9548 39.5291 34.9248 39.5391 34.8848 39.5391C34.8448 39.5391 34.8048 39.5591 34.7748 39.5691C34.7408 39.5807 34.7075 39.594 34.6749 39.6091C34.6549 39.6191 34.6449 39.6191 34.6249 39.6291C34.6049 39.6391 34.6049 39.6491 34.5849 39.6591C34.5525 39.6792 34.5224 39.7027 34.4949 39.7291C34.4658 39.7531 34.439 39.7799 34.4149 39.809C34.3949 39.839 34.3649 39.869 34.3449 39.899C34.3326 39.9104 34.3224 39.924 34.3149 39.939L0.0999316 99.2203C0.0853924 99.2521 0.0752991 99.2858 0.069936 99.3203C0.0487471 99.3721 0.0320221 99.4256 0.0199433 99.4803C0.00407223 99.5321 -0.00269386 99.5862 -5.37512e-05 99.6403C-0.00170921 99.6938 0.00163817 99.7473 0.00994478 99.8002ZM102.995 1.70463L136.24 59.2862H115.383L82.1279 1.70463H102.995ZM114.403 98.8004H93.5362L115.373 60.9659H136.24L114.403 98.8004ZM80.6681 2.54451L113.913 60.1261L92.0764 97.9605L81.648 79.8832L92.8163 60.546C92.8263 60.526 92.8263 60.516 92.8363 60.496C92.8539 60.4645 92.8673 60.4309 92.8763 60.396C92.8863 60.356 92.8963 60.326 92.9063 60.286C92.9146 60.25 92.918 60.213 92.9163 60.1761C92.9163 60.1561 92.9263 60.1461 92.9263 60.1261C92.9263 60.1061 92.9163 60.0961 92.9163 60.0761C92.9163 60.0361 92.9063 60.0061 92.9063 59.9661C92.9063 59.9261 92.8863 59.8961 92.8763 59.8561C92.8647 59.8221 92.8514 59.7887 92.8363 59.7561C92.8263 59.7361 92.8263 59.7261 92.8163 59.7061L81.398 39.949C81.378 39.919 81.348 39.899 81.328 39.869C81.2938 39.8237 81.2571 39.7803 81.218 39.7391C81.1771 39.7057 81.1336 39.6756 81.088 39.6491C81.0435 39.6218 80.9966 39.5984 80.9481 39.5791C80.8935 39.5595 80.836 39.5493 80.7781 39.5491C80.7481 39.5491 80.7081 39.5291 80.6781 39.5291H59.3212L80.6681 2.54451ZM57.8615 41.2188H80.1882L90.6266 59.2862H46.9431L36.5046 41.2188H57.8615ZM35.0448 42.0587L45.4733 60.1261L12.2282 117.708L1.79968 99.6403L35.0448 42.0587ZM13.6979 118.547L46.9431 60.9659H90.6266L80.1882 79.0433H57.8615C57.8415 79.0433 57.8315 79.0533 57.8115 79.0533C57.7715 79.0533 57.7415 79.0633 57.7015 79.0633L57.5815 79.0933C57.5515 79.1033 57.5115 79.1233 57.4815 79.1333C57.4515 79.1433 57.4515 79.1433 57.4315 79.1533C57.4201 79.1656 57.4066 79.1758 57.3915 79.1833C57.3592 79.2034 57.329 79.2269 57.3015 79.2533C57.2724 79.2773 57.2456 79.3041 57.2215 79.3333C57.2015 79.3632 57.1716 79.3932 57.1516 79.4232C57.1416 79.4332 57.1216 79.4432 57.1216 79.4632L45.7132 99.2203C45.6987 99.2521 45.6886 99.2858 45.6832 99.3203C45.6621 99.3721 45.6453 99.4256 45.6332 99.4803C45.6246 99.5332 45.6213 99.5867 45.6233 99.6403C45.6216 99.6938 45.6249 99.7473 45.6332 99.8002C45.6439 99.8553 45.6606 99.9089 45.6832 99.9602C45.6932 99.9902 45.7032 100.03 45.7132 100.06L56.3917 118.547H13.6979ZM137.22 138.305H70.7296L81.158 120.237H147.648L137.22 138.305ZM69.2698 137.465L47.433 99.6403L57.8715 81.5629L79.7083 119.387L69.2698 137.465ZM147.648 118.547H81.158L59.3212 80.723H80.1882L91.3565 100.06L91.3865 100.09C91.4064 100.126 91.4299 100.159 91.4565 100.19C91.4951 100.232 91.5388 100.269 91.5865 100.3C91.6165 100.32 91.6365 100.35 91.6665 100.37C91.6782 100.378 91.6924 100.382 91.7065 100.38C91.8197 100.443 91.9468 100.478 92.0764 100.48H114.893C115.026 100.478 115.156 100.444 115.273 100.38L115.363 100.32C115.448 100.263 115.522 100.192 115.583 100.11C115.593 100.09 115.623 100.08 115.633 100.06L126.311 81.5629L147.648 118.547Z" fill="white"/>
</g>
<defs>
<clipPath id="clip0_5_68">
<rect width="149.938" height="140" fill="white"/>
</clipPath>
</defs>
</svg>
