<svg width="139" height="142" viewBox="0 0 139 142" fill="none" xmlns="http://www.w3.org/2000/svg">
<g clip-path="url(#clip0_5_105)">
<path fill-rule="evenodd" clip-rule="evenodd" d="M137.733 49.8213C133.137 35.3038 123.935 22.6797 111.521 13.8613C99.1066 5.04289 84.1566 0.510667 68.9354 0.951205C53.7142 1.39174 39.0512 6.78104 27.1677 16.3027C15.2842 25.8243 6.82783 38.9596 3.07932 53.7185C-0.669185 68.4775 0.494534 84.0561 6.39422 98.0943C12.2939 112.133 22.6081 123.866 35.7743 131.516C48.9406 139.166 64.2415 142.317 79.3592 140.492C94.4769 138.666 108.588 131.963 119.554 121.398H119.584L120.154 120.828C122.904 118.065 124.447 114.324 124.442 110.425C124.438 106.526 122.887 102.789 120.131 100.032C117.374 97.2753 113.636 95.7247 109.738 95.7203C105.839 95.7159 102.098 97.2582 99.335 100.009V99.9988C93.6997 105.514 86.5787 109.267 78.8437 110.798C71.1087 112.329 63.0951 111.572 55.7837 108.619C48.4723 105.667 42.1801 100.647 37.6774 94.1737C33.1747 87.7006 30.6567 80.0553 30.4317 72.1734C30.2067 64.2915 32.2843 56.5149 36.4103 49.7955C40.5363 43.076 46.5318 37.7051 53.6628 34.3402C60.7939 30.9752 68.7512 29.7621 76.561 30.8493C84.3708 31.9366 91.6943 35.277 97.6351 40.4618L99.605 42.4417C100.526 43.3747 101.04 44.6339 101.035 45.9447C101.031 47.2554 100.508 48.5112 99.5817 49.438C98.6548 50.3648 97.399 50.8875 96.0883 50.8918C94.7776 50.8962 93.5183 50.382 92.5853 49.4613L89.8555 46.7215L89.7555 46.8215C89.7121 46.6995 89.64 46.5898 89.5454 46.5015C84.9103 42.9914 79.3748 40.8678 73.5814 40.3772C67.7879 39.8865 61.9742 41.049 56.8148 43.7295C51.6554 46.4101 47.3619 50.4989 44.4328 55.5214C41.5037 60.5438 40.059 66.294 40.2664 72.1045C40.4738 77.915 42.3248 83.5475 45.6045 88.3484C48.8842 93.1492 53.4581 96.9215 58.7955 99.2274C64.1329 101.533 70.0148 102.278 75.7585 101.376C81.5022 100.473 86.8723 97.9607 91.2454 94.1291C92.0687 93.2092 92.5205 92.016 92.5132 90.7815C92.5058 89.547 92.0397 88.3594 91.2054 87.4494C89.2355 85.3195 85.8656 85.8795 84.1957 87.2494C81.151 89.7256 77.4712 91.2954 73.5767 91.7794C69.6822 92.2634 65.7301 91.6421 62.1719 89.9866C58.6137 88.331 55.593 85.7079 53.4549 82.417C51.3169 79.1261 50.1476 75.3001 50.0809 71.3762C50.0141 67.4523 51.0524 63.5887 53.0773 60.2269C55.1021 56.8652 58.0318 54.1408 61.5316 52.3651C65.0313 50.5894 68.96 49.8339 72.8688 50.1851C76.7775 50.5363 80.5086 51.98 83.6358 54.3511L83.6657 54.3311L85.4356 56.101C88.1985 58.8516 91.9397 60.3939 95.8383 60.3895C99.7369 60.3851 103.475 58.8345 106.231 56.0777C108.988 53.321 110.539 49.5833 110.543 45.6847C110.547 41.7861 109.005 38.0449 106.255 35.282L106.035 35.0621C106.001 34.9047 105.925 34.7596 105.815 34.6421C98.6516 27.7876 89.6251 23.1996 79.866 21.453C70.1068 19.7063 60.0492 20.8787 50.9535 24.8232C41.8578 28.7677 34.1284 35.3089 28.734 43.6271C23.3397 51.9453 20.5203 61.6705 20.6291 71.5841C20.7379 81.4978 23.7699 91.1588 29.3454 99.3567C34.921 107.555 42.792 113.925 51.9721 117.669C61.1522 121.413 71.233 122.364 80.9515 120.404C90.67 118.443 99.5937 113.658 106.605 106.648C106.619 106.614 106.636 106.581 106.655 106.548C107.557 105.704 108.743 105.229 109.979 105.215C111.215 105.201 112.411 105.65 113.333 106.474C114.254 107.297 114.834 108.436 114.958 109.665C115.082 110.895 114.742 112.127 114.004 113.118C104.873 122.445 92.9559 128.549 80.0511 130.509C67.1464 132.47 53.9543 130.18 42.4653 123.985C30.9762 117.79 21.8137 108.026 16.3601 96.1676C10.9066 84.3087 9.45801 70.9978 12.2329 58.2434C15.0078 45.4891 21.8556 33.9832 31.7432 25.462C41.6307 16.9408 54.0214 11.8666 67.0457 11.005C80.07 10.1434 93.0211 13.5412 103.945 20.6856C114.869 27.8301 123.173 38.3336 127.604 50.6113C128.334 52.6412 130.043 55.601 133.533 55.381C134.208 55.3803 134.874 55.2232 135.478 54.922C136.082 54.6208 136.608 54.1838 137.015 53.6452C137.422 53.1065 137.699 52.481 137.823 51.8175C137.948 51.1541 137.917 50.4708 137.733 49.8213Z" stroke="white" stroke-width="1.9999" stroke-miterlimit="10" stroke-linecap="round" stroke-linejoin="round"/>
</g>
<defs>
<clipPath id="clip0_5_105">
<rect width="138.922" height="142" fill="white"/>
</clipPath>
</defs>
</svg>
