<svg width="140" height="122" viewBox="0 0 140 122" fill="none" xmlns="http://www.w3.org/2000/svg">
<g clip-path="url(#clip0_5_114)">
<path d="M116.539 101.368C116.549 101.358 116.549 101.338 116.559 101.328C116.578 101.297 116.592 101.263 116.599 101.228C116.609 101.198 116.619 101.158 116.629 101.128C116.637 101.095 116.641 101.062 116.639 101.028C116.639 101.008 116.649 100.998 116.649 100.978C116.649 100.958 116.639 100.948 116.639 100.928C116.639 100.908 116.629 100.858 116.629 100.828C116.629 100.798 116.609 100.758 116.599 100.728C116.588 100.694 116.575 100.66 116.559 100.628C116.549 100.618 116.549 100.598 116.539 100.588L105.323 81.1631H127.745C127.867 81.1593 127.986 81.1286 128.095 81.0731C128.125 81.0531 128.145 81.0331 128.175 81.0131C128.256 80.9623 128.324 80.894 128.375 80.8132C128.385 80.7932 128.405 80.7832 128.425 80.7632L139.781 61.0982C139.791 61.0882 139.791 61.0683 139.801 61.0583C139.82 61.0276 139.833 60.9937 139.841 60.9583C139.851 60.9283 139.861 60.8883 139.871 60.8583C139.879 60.8257 139.882 60.792 139.881 60.7583C139.881 60.7383 139.891 60.7283 139.891 60.7083C139.891 60.6884 139.881 60.6783 139.881 60.6584C139.881 60.6384 139.871 60.5884 139.871 60.5584C139.871 60.5284 139.851 60.4884 139.841 60.4584C139.83 60.4241 139.817 60.3907 139.801 60.3584C139.791 60.3484 139.791 60.3284 139.781 60.3184L128.425 40.6535C128.407 40.6281 128.387 40.6046 128.365 40.5835C128.334 40.5387 128.297 40.4983 128.255 40.4635C128.213 40.4312 128.17 40.4012 128.125 40.3736C128.084 40.3476 128.041 40.3274 127.995 40.3136C127.944 40.294 127.89 40.2838 127.835 40.2836C127.805 40.2836 127.775 40.2636 127.745 40.2636H105.323L116.539 20.8386C116.549 20.8286 116.549 20.8086 116.559 20.7986C116.578 20.7679 116.592 20.7341 116.599 20.6986C116.609 20.6686 116.619 20.6286 116.629 20.5986C116.637 20.566 116.641 20.5323 116.639 20.4987C116.639 20.4787 116.649 20.4687 116.649 20.4487C116.649 20.4287 116.639 20.4187 116.639 20.3987C116.639 20.3787 116.629 20.3287 116.629 20.2987C116.629 20.2687 116.609 20.2287 116.599 20.1987C116.588 20.1644 116.575 20.131 116.559 20.0988C116.549 20.0888 116.549 20.0688 116.539 20.0588L105.193 0.393807C105.176 0.36842 105.155 0.344961 105.133 0.323825C105.103 0.281455 105.069 0.241358 105.033 0.203855C104.991 0.17154 104.948 0.141505 104.903 0.113879C104.863 0.0879527 104.819 0.0677639 104.773 0.0538936C104.722 0.0343192 104.668 0.024158 104.613 0.0239016C104.583 0.0239016 104.553 0.00390625 104.523 0.00390625H81.8212C81.8012 0.00390625 81.7912 0.0139039 81.7712 0.0139039C81.7512 0.0139039 81.7012 0.0239016 81.6712 0.0239016L81.5613 0.0538936C81.5296 0.0629535 81.4992 0.0764144 81.4712 0.0938833C81.4595 0.101835 81.4454 0.105377 81.4313 0.103881L81.4013 0.133873C81.3729 0.151384 81.3462 0.171463 81.3214 0.193858C81.2923 0.217939 81.2654 0.244718 81.2413 0.273838C81.2214 0.30383 81.2014 0.323825 81.1814 0.353817C81.1691 0.365209 81.1589 0.378762 81.1514 0.393807L69.9354 19.8188L58.7194 0.393807C58.7019 0.36842 58.6818 0.344961 58.6593 0.323825C58.6255 0.281392 58.5887 0.241309 58.5494 0.203855C58.5118 0.173781 58.4717 0.147021 58.4294 0.123875C58.3891 0.0979494 58.3454 0.0777615 58.2995 0.0638913C58.2487 0.0434317 58.1943 0.0332385 58.1395 0.0338992C58.1095 0.0338992 58.0796 0.0139039 58.0496 0.0139039H35.3476C35.3276 0.0139039 35.3176 0.0239016 35.2976 0.0239016C35.2776 0.0239016 35.2276 0.0338992 35.1977 0.0338992L35.0877 0.0638913C35.056 0.0729512 35.0256 0.086412 34.9977 0.103881C34.9859 0.111833 34.9718 0.115375 34.9578 0.113879C34.9464 0.126228 34.9328 0.136392 34.9177 0.143871C34.8893 0.161382 34.8626 0.18146 34.8378 0.203855C34.8087 0.227936 34.7818 0.254716 34.7578 0.283835C34.7378 0.313827 34.7178 0.333822 34.6978 0.363815C34.6855 0.375207 34.6753 0.388759 34.6678 0.403804L23.3218 20.0688C23.3074 20.0971 23.2973 20.1274 23.2918 20.1587C23.2707 20.2071 23.2539 20.2573 23.2418 20.3087C23.2285 20.4082 23.2285 20.5091 23.2418 20.6086C23.2539 20.66 23.2707 20.7102 23.2918 20.7586C23.2973 20.7899 23.3074 20.8202 23.3218 20.8486L34.5379 40.2736H12.1158C12.0958 40.2736 12.0858 40.2836 12.0658 40.2836C12.0458 40.2836 11.9959 40.2936 11.9659 40.2936L11.8559 40.3236C11.8242 40.3326 11.7938 40.3461 11.7659 40.3636C11.7559 40.3736 11.736 40.3736 11.726 40.3836L11.6959 40.4135C11.6675 40.4311 11.6408 40.4511 11.616 40.4735C11.5869 40.4976 11.56 40.5244 11.536 40.5535C11.516 40.5835 11.496 40.6035 11.4761 40.6335C11.4637 40.6449 11.4535 40.6584 11.446 40.6735L0.0900553 60.3384C0.0756165 60.3668 0.0654783 60.3971 0.0600366 60.4284C0.0389051 60.4768 0.0221278 60.527 0.0100054 60.5784C-0.00333514 60.6779 -0.00333514 60.7788 0.0100054 60.8783C0.0221278 60.9297 0.0389051 60.9799 0.0600366 61.0283C0.0654783 61.0596 0.0756165 61.0899 0.0900553 61.1182L11.446 80.7832L11.4761 80.8132C11.4962 80.8455 11.5196 80.8757 11.546 80.9032C11.586 80.9432 11.6259 80.9731 11.6659 81.0131C11.6959 81.0331 11.706 81.0631 11.736 81.0731C11.7477 81.0811 11.7618 81.0846 11.7759 81.0831C11.8844 81.1386 12.0039 81.1693 12.1257 81.1731H34.5479L23.3419 100.598C23.3274 100.626 23.3173 100.657 23.3118 100.688C23.2907 100.736 23.2739 100.787 23.2618 100.838C23.2485 100.938 23.2485 101.038 23.2618 101.138C23.2739 101.189 23.2907 101.24 23.3118 101.288C23.3173 101.319 23.3274 101.35 23.3419 101.378L34.6878 121.043L34.7178 121.073C34.738 121.105 34.7614 121.135 34.7878 121.163C34.8278 121.203 34.8677 121.233 34.9077 121.273C34.9377 121.293 34.9478 121.323 34.9778 121.333C34.9895 121.341 35.0036 121.344 35.0177 121.343C35.1262 121.398 35.2457 121.429 35.3675 121.433H58.0696C58.1914 121.429 58.3109 121.398 58.4194 121.343C58.4494 121.323 58.4694 121.303 58.4994 121.283C58.5802 121.232 58.6486 121.164 58.6994 121.083C58.7094 121.063 58.7293 121.053 58.7493 121.033L69.9654 101.608L81.1814 121.033L81.2114 121.063C81.2316 121.095 81.255 121.125 81.2814 121.153C81.3214 121.193 81.3613 121.223 81.4013 121.263C81.4313 121.283 81.4413 121.313 81.4712 121.323C81.483 121.331 81.4972 121.334 81.5113 121.333C81.6198 121.388 81.7393 121.419 81.8611 121.423H104.563C104.685 121.419 104.804 121.388 104.913 121.333C104.943 121.313 104.963 121.293 104.993 121.273C105.074 121.222 105.142 121.154 105.193 121.073C105.203 121.053 105.223 121.043 105.243 121.023L116.539 101.368ZM104.053 119.853H83.1607L93.607 101.758H114.5L104.053 119.853ZM57.5698 119.853H36.6771L59.0192 81.1631H79.9119L57.5698 119.853ZM13.4353 79.5835L23.8816 61.4881H68.5559L58.1095 79.5835H13.4353ZM12.0758 42.613L22.5221 60.7083L12.0758 78.8037L1.62943 60.7083L12.0758 42.613ZM24.8712 20.4387L35.3176 2.34331L57.6597 41.0334L47.2134 59.1287L24.8712 20.4387ZM81.8112 2.3533L92.2575 20.4487L69.9254 59.1387L59.479 41.0434L81.8112 2.3533ZM104.053 1.56351L114.5 19.6589H93.607L83.1607 1.56351H104.053ZM127.305 41.8332L137.751 59.9285H93.0773L82.6309 41.8332H127.305ZM81.2614 42.613L91.2478 59.9185H71.2649L81.2614 42.613ZM68.5559 59.9185H48.5729L58.5594 42.613L68.5559 59.9185ZM69.9154 62.2779L79.9018 79.5835H59.9189L69.9154 62.2779ZM71.2749 61.4981H92.1575L114.49 100.188H93.597L71.2749 61.4981ZM93.9768 61.4981H137.741L127.295 79.5935H104.413L93.9768 61.4981ZM82.6309 40.2536L93.617 21.2285H114.51L103.524 40.2536H82.6309ZM58.5594 39.4738L36.6771 1.56351H57.5698L69.0157 21.3784L58.5594 39.4738ZM45.8439 59.9185H23.8716L13.4253 41.8232H35.3975L45.8439 59.9185ZM57.1999 81.1631L35.3176 119.073L24.8712 100.978L36.3073 81.1631H57.1999ZM81.2614 81.9429L92.2475 100.968L81.8012 119.063L70.8151 100.028L81.2614 81.9429Z" fill="white"/>
</g>
<defs>
<clipPath id="clip0_5_114">
<rect width="139.891" height="121.438" fill="white"/>
</clipPath>
</defs>
</svg>
